# Blender v2.78 (sub 0) OBJ File: 'bowl_inner.blend'
# www.blender.org
o Icosphere
v 0.041069 -0.866575 -0.007764
v 0.753680 -0.368630 0.509972
v -0.231119 -0.368631 0.829958
v -0.839765 -0.368627 -0.007764
v -0.231119 -0.368631 -0.845486
v 0.753680 -0.368630 -0.525500
v -0.118917 -0.732045 0.484633
v 0.459929 -0.732044 0.296552
v 0.299943 -0.439360 0.788954
v 0.878790 -0.439358 -0.007764
v 0.459929 -0.732044 -0.312079
v -0.476671 -0.732042 -0.007764
v -0.636662 -0.439358 0.484635
v -0.118917 -0.732045 -0.500161
v -0.636662 -0.439358 -0.500162
v 0.299943 -0.439360 -0.804481
v 0.977674 0.034225 0.296553
v 0.977674 0.034225 -0.312080
v 0.041069 0.034225 0.977040
v 0.619923 0.034225 0.788959
v -0.895536 0.034225 0.296553
v -0.537784 0.034225 0.788959
v -0.537784 0.034225 -0.804486
v -0.895536 0.034225 -0.312080
v 0.619923 0.034225 -0.804486
v 0.041069 0.034225 -0.992567
v 0.041069 -0.790908 -0.007764
v 0.693822 -0.334793 0.466484
v -0.208256 -0.334791 0.759590
v -0.765776 -0.334789 -0.007764
v -0.208256 -0.334791 -0.775118
v 0.693822 -0.334793 -0.482011
v -0.105479 -0.667679 0.443273
v 0.424746 -0.667679 0.270990
v 0.278199 -0.399580 0.722032
v 0.808422 -0.399579 -0.007764
v 0.424746 -0.667679 -0.286518
v -0.433182 -0.667676 -0.007764
v -0.579735 -0.399579 0.443274
v -0.105479 -0.667679 -0.458800
v -0.579735 -0.399579 -0.458802
v 0.278199 -0.399580 -0.737559
v 0.900573 0.051002 0.272847
v 0.900573 0.051002 -0.288374
v 0.039792 0.051002 0.896386
v 0.573551 0.051002 0.722958
v -0.819225 0.051002 0.270416
v -0.489344 0.051002 0.724460
v -0.489344 0.051002 -0.739988
v -0.819225 0.051002 -0.285943
v 0.573551 0.051002 -0.738486
v 0.039792 0.051002 -0.911914
vn 0.0000 -1.0000 0.0000
vn 0.4029 -0.8671 0.2927
vn -0.1539 -0.8671 0.4737
vn 0.7129 -0.4729 0.5179
vn 0.8342 -0.5514 0.0000
vn -0.4981 -0.8671 0.0000
vn -0.1539 -0.8671 -0.4737
vn 0.4029 -0.8671 -0.2927
vn 0.8422 0.4721 0.2602
vn -0.2723 -0.4729 0.8380
vn 0.2578 -0.5514 0.7934
vn 0.0128 0.4721 0.8814
vn -0.8811 -0.4729 0.0000
vn -0.6749 -0.5514 0.4903
vn -0.8343 0.4721 0.2845
vn -0.2723 -0.4729 -0.8380
vn -0.6749 -0.5514 -0.4903
vn -0.5284 0.4721 -0.7056
vn 0.7129 -0.4729 -0.5179
vn 0.2578 -0.5514 -0.7934
vn 0.5078 0.4721 -0.7206
vn 0.5078 0.4721 0.7206
vn -0.5284 0.4721 0.7056
vn -0.8343 0.4721 -0.2845
vn 0.0128 0.4721 -0.8814
vn 0.8422 0.4721 -0.2602
vn 0.0000 1.0000 0.0000
vn 0.1539 0.8671 -0.4737
vn -0.4029 0.8671 -0.2927
vn -0.7135 0.4714 -0.5184
vn -0.8358 0.5490 0.0000
vn 0.4981 0.8671 0.0000
vn 0.1539 0.8671 0.4737
vn -0.4029 0.8671 0.2927
vn -0.4041 0.9067 -0.1208
vn 0.2725 0.4714 -0.8387
vn -0.0100 0.9067 -0.4217
vn -0.2583 0.5490 -0.7949
vn 0.8819 0.4714 0.0000
vn 0.3980 0.9067 -0.1398
vn 0.6762 0.5490 -0.4913
vn 0.2725 0.4714 0.8387
vn 0.2559 0.9067 0.3353
vn 0.6762 0.5490 0.4913
vn -0.7135 0.4714 0.5184
vn -0.2398 0.9067 0.3470
vn -0.2583 0.5490 0.7949
vn -0.2398 0.9067 -0.3470
vn 0.2559 0.9067 -0.3353
vn 0.3980 0.9067 0.1398
vn -0.0100 0.9067 0.4217
vn -0.4041 0.9067 0.1208
s 1
f 1//1 8//2 7//3
f 2//4 8//2 10//5
f 1//1 7//3 12//6
f 1//1 12//6 14//7
f 1//1 14//7 11//8
f 2//4 10//5 17//9
f 3//10 9//11 19//12
f 4//13 13//14 21//15
f 5//16 15//17 23//18
f 6//19 16//20 25//21
f 2//4 17//9 20//22
f 3//10 19//12 22//23
f 4//13 21//15 24//24
f 5//16 23//18 26//25
f 6//19 25//21 18//26
f 25//21 16//20 26//25
f 16//20 5//16 26//25
f 23//18 15//17 24//24
f 15//17 4//13 24//24
f 21//15 13//14 22//23
f 13//14 3//10 22//23
f 19//12 9//11 20//22
f 9//11 2//4 20//22
f 17//9 10//5 18//26
f 10//5 6//19 18//26
f 11//8 16//20 6//19
f 11//8 14//7 16//20
f 14//7 5//16 16//20
f 14//7 15//17 5//16
f 14//7 12//6 15//17
f 12//6 4//13 15//17
f 12//6 13//14 4//13
f 12//6 7//3 13//14
f 7//3 3//10 13//14
f 10//5 11//8 6//19
f 10//5 8//2 11//8
f 8//2 1//1 11//8
f 7//3 9//11 3//10
f 7//3 8//2 9//11
f 8//2 2//4 9//11
f 27//27 33//28 34//29
f 28//30 36//31 34//29
f 27//27 38//32 33//28
f 27//27 40//33 38//32
f 27//27 37//34 40//33
f 28//30 43//35 36//31
f 29//36 45//37 35//38
f 30//39 47//40 39//41
f 31//42 49//43 41//44
f 32//45 51//46 42//47
f 28//30 46//48 43//35
f 29//36 48//49 45//37
f 30//39 50//50 47//40
f 31//42 52//51 49//43
f 32//45 44//52 51//46
f 51//46 52//51 42//47
f 42//47 52//51 31//42
f 49//43 50//50 41//44
f 41//44 50//50 30//39
f 47//40 48//49 39//41
f 39//41 48//49 29//36
f 45//37 46//48 35//38
f 35//38 46//48 28//30
f 43//35 44//52 36//31
f 36//31 44//52 32//45
f 37//34 32//45 42//47
f 37//34 42//47 40//33
f 40//33 42//47 31//42
f 40//33 31//42 41//44
f 40//33 41//44 38//32
f 38//32 41//44 30//39
f 38//32 30//39 39//41
f 38//32 39//41 33//28
f 33//28 39//41 29//36
f 36//31 32//45 37//34
f 36//31 37//34 34//29
f 34//29 37//34 27//27
f 33//28 29//36 35//38
f 33//28 35//38 34//29
f 34//29 35//38 28//30
f 25//21 44//52 18//26
f 23//18 52//51 26//25
f 21//15 50//50 24//24
f 22//23 45//37 48//49
f 20//22 43//35 46//48
f 25//21 52//51 51//46
f 23//18 50//50 49//43
f 22//23 47//40 21//15
f 20//22 45//37 19//12
f 18//26 43//35 17//9
f 25//21 51//46 44//52
f 23//18 49//43 52//51
f 21//15 47//40 50//50
f 22//23 19//12 45//37
f 20//22 17//9 43//35
f 25//21 26//25 52//51
f 23//18 24//24 50//50
f 22//23 48//49 47//40
f 20//22 46//48 45//37
f 18//26 44//52 43//35
