# Blender v2.78 (sub 0) OBJ File: 'bowl_inner.blend'
# www.blender.org
o Icosphere
v 0.041069 -0.862874 -0.007764
v 0.759066 -0.361165 0.513885
v -0.233176 -0.361166 0.836290
v -0.846422 -0.361162 -0.007764
v -0.233176 -0.361166 -0.851817
v 0.759066 -0.361165 -0.529413
v -0.120127 -0.727326 0.488355
v 0.463094 -0.727326 0.298852
v 0.301900 -0.432429 0.794975
v 0.885122 -0.432428 -0.007764
v 0.463094 -0.727326 -0.314379
v -0.480584 -0.727324 -0.007764
v -0.641784 -0.432428 0.488356
v -0.120127 -0.727326 -0.503882
v -0.641784 -0.432428 -0.503884
v 0.301900 -0.432429 -0.810503
v 0.984753 0.044735 0.298853
v 0.984753 0.044735 -0.314380
v 0.041069 0.044735 0.984483
v 0.624297 0.044735 0.794980
v -0.902614 0.044735 0.298853
v -0.542159 0.044735 0.794980
v -0.542159 0.044735 -0.810508
v -0.902614 0.044735 -0.314380
v 0.624297 0.044735 -0.810508
v 0.041069 0.044735 -1.000010
v 0.041069 -0.766667 -0.007764
v 0.682960 -0.318143 0.458592
v -0.204107 -0.318141 0.746821
v -0.752350 -0.318140 -0.007764
v -0.204107 -0.318141 -0.762348
v 0.682960 -0.318143 -0.474119
v -0.103040 -0.645489 0.435767
v 0.418361 -0.645489 0.266352
v 0.274253 -0.381852 0.709888
v 0.795653 -0.381851 -0.007764
v 0.418361 -0.645489 -0.281879
v -0.425291 -0.645487 -0.007764
v -0.569405 -0.381851 0.435769
v -0.103040 -0.645489 -0.451295
v -0.569405 -0.381851 -0.451296
v 0.274253 -0.381852 -0.725415
v 0.886723 0.066065 0.268712
v 0.886723 0.066065 -0.284240
v 0.039445 0.066065 0.881937
v 0.565338 0.066065 0.711064
v -0.805589 0.066065 0.265621
v -0.480571 0.066065 0.712974
v -0.480571 0.066065 -0.728502
v -0.805589 0.066065 -0.281149
v 0.565338 0.066065 -0.726592
v 0.039445 0.066065 -0.897464
vn 0.0000 -1.0000 0.0000
vn 0.4029 -0.8671 0.2927
vn -0.1539 -0.8671 0.4737
vn 0.7129 -0.4729 0.5179
vn 0.8342 -0.5514 0.0000
vn -0.4981 -0.8671 0.0000
vn -0.1539 -0.8671 -0.4737
vn 0.4029 -0.8671 -0.2927
vn 0.8422 0.4721 0.2602
vn -0.2723 -0.4729 0.8380
vn 0.2578 -0.5514 0.7934
vn 0.0128 0.4721 0.8814
vn -0.8811 -0.4729 0.0000
vn -0.6749 -0.5514 0.4903
vn -0.8343 0.4721 0.2845
vn -0.2723 -0.4729 -0.8380
vn -0.6749 -0.5514 -0.4903
vn -0.5284 0.4721 -0.7056
vn 0.7129 -0.4729 -0.5179
vn 0.2578 -0.5514 -0.7934
vn 0.5078 0.4721 -0.7206
vn 0.5078 0.4721 0.7206
vn -0.5284 0.4721 0.7056
vn -0.8343 0.4721 -0.2845
vn 0.0128 0.4721 -0.8814
vn 0.8422 0.4721 -0.2602
vn 0.0000 1.0000 0.0000
vn 0.1539 0.8671 -0.4737
vn -0.4029 0.8671 -0.2927
vn -0.7136 0.4710 -0.5185
vn -0.8363 0.5483 0.0000
vn 0.4981 0.8671 0.0000
vn 0.1539 0.8671 0.4737
vn -0.4029 0.8671 0.2927
vn -0.4048 0.9063 -0.1211
vn 0.2726 0.4710 -0.8390
vn -0.0099 0.9063 -0.4224
vn -0.2584 0.5483 -0.7953
vn 0.8821 0.4710 0.0000
vn 0.3987 0.9063 -0.1399
vn 0.6765 0.5483 -0.4915
vn 0.2726 0.4710 0.8390
vn 0.2563 0.9063 0.3359
vn 0.6765 0.5483 0.4915
vn -0.7136 0.4710 0.5185
vn -0.2403 0.9063 0.3475
vn -0.2584 0.5483 0.7953
vn -0.2403 0.9063 -0.3475
vn 0.2563 0.9063 -0.3359
vn 0.3987 0.9063 0.1399
vn -0.0099 0.9063 0.4224
vn -0.4048 0.9063 0.1211
s 1
f 1//1 8//2 7//3
f 2//4 8//2 10//5
f 1//1 7//3 12//6
f 1//1 12//6 14//7
f 1//1 14//7 11//8
f 2//4 10//5 17//9
f 3//10 9//11 19//12
f 4//13 13//14 21//15
f 5//16 15//17 23//18
f 6//19 16//20 25//21
f 2//4 17//9 20//22
f 3//10 19//12 22//23
f 4//13 21//15 24//24
f 5//16 23//18 26//25
f 6//19 25//21 18//26
f 25//21 16//20 26//25
f 16//20 5//16 26//25
f 23//18 15//17 24//24
f 15//17 4//13 24//24
f 21//15 13//14 22//23
f 13//14 3//10 22//23
f 19//12 9//11 20//22
f 9//11 2//4 20//22
f 17//9 10//5 18//26
f 10//5 6//19 18//26
f 11//8 16//20 6//19
f 11//8 14//7 16//20
f 14//7 5//16 16//20
f 14//7 15//17 5//16
f 14//7 12//6 15//17
f 12//6 4//13 15//17
f 12//6 13//14 4//13
f 12//6 7//3 13//14
f 7//3 3//10 13//14
f 10//5 11//8 6//19
f 10//5 8//2 11//8
f 8//2 1//1 11//8
f 7//3 9//11 3//10
f 7//3 8//2 9//11
f 8//2 2//4 9//11
f 27//27 33//28 34//29
f 28//30 36//31 34//29
f 27//27 38//32 33//28
f 27//27 40//33 38//32
f 27//27 37//34 40//33
f 28//30 43//35 36//31
f 29//36 45//37 35//38
f 30//39 47//40 39//41
f 31//42 49//43 41//44
f 32//45 51//46 42//47
f 28//30 46//48 43//35
f 29//36 48//49 45//37
f 30//39 50//50 47//40
f 31//42 52//51 49//43
f 32//45 44//52 51//46
f 51//46 52//51 42//47
f 42//47 52//51 31//42
f 49//43 50//50 41//44
f 41//44 50//50 30//39
f 47//40 48//49 39//41
f 39//41 48//49 29//36
f 45//37 46//48 35//38
f 35//38 46//48 28//30
f 43//35 44//52 36//31
f 36//31 44//52 32//45
f 37//34 32//45 42//47
f 37//34 42//47 40//33
f 40//33 42//47 31//42
f 40//33 31//42 41//44
f 40//33 41//44 38//32
f 38//32 41//44 30//39
f 38//32 30//39 39//41
f 38//32 39//41 33//28
f 33//28 39//41 29//36
f 36//31 32//45 37//34
f 36//31 37//34 34//29
f 34//29 37//34 27//27
f 33//28 29//36 35//38
f 33//28 35//38 34//29
f 34//29 35//38 28//30
f 25//21 44//52 18//26
f 23//18 52//51 26//25
f 21//15 50//50 24//24
f 22//23 45//37 48//49
f 20//22 43//35 46//48
f 25//21 52//51 51//46
f 23//18 50//50 49//43
f 22//23 47//40 21//15
f 20//22 45//37 19//12
f 18//26 43//35 17//9
f 25//21 51//46 44//52
f 23//18 49//43 52//51
f 21//15 47//40 50//50
f 22//23 19//12 45//37
f 20//22 17//9 43//35
f 25//21 26//25 52//51
f 23//18 24//24 50//50
f 22//23 48//49 47//40
f 20//22 46//48 45//37
f 18//26 44//52 43//35
